<?xml version="1.0" encoding="UTF-8"?>
<svg width="200" height="50" viewBox="0 0 200 50" fill="none" xmlns="http://www.w3.org/2000/svg">
  <!-- Elemente Elvețiene - crucea elvețiană stilizată -->
  <rect x="10" y="15" width="20" height="20" rx="2" fill="#D80027"/>
  <rect x="15" y="20" width="10" height="2" fill="white"/>
  <rect x="15" y="28" width="10" height="2" fill="white"/>
  <rect x="19" y="16" width="2" height="18" fill="white"/>
  
  <!-- Simbolul CO2 - molecule -->
  <circle cx="45" cy="25" r="8" fill="#34A853" opacity="0.9"/>
  <circle cx="55" cy="20" r="5" fill="#4285F4" opacity="0.8"/>
  <circle cx="55" cy="30" r="5" fill="#4285F4" opacity="0.8"/>

  <!-- TextSwissO2 -->
  <text x="70" y="30" font-family="Arial, sans-serif" font-weight="bold" font-size="16" fill="#1F2937">SwissO<tspan font-size="14" baseline-shift="sub">2</tspan></text>
  
  <!-- Element grafic reprezentând certificare/trading -->
  <path d="M170 15 L190 15 L185 20 L195 20 L190 25 L180 25 L175 30 L185 30 L180 35 L160 35 L165 30 L155 30 L160 25 L170 25 L175 20 L165 20 Z" fill="#FBBC05" opacity="0.8"/>
</svg>